<svg xmlns="http://www.w3.org/2000/svg" version="1.1" xmlns:xlink="http://www.w3.org/1999/xlink" xmlns:svgjs="http://svgjs.dev/svgjs" width="1000" height="1000" viewBox="0 0 1000 1000"><rect width="1000" height="1000" fill="#331e6d"></rect><g transform="matrix(0.7,0,0,0.7,149.68051410452335,190.50081066492743)"><svg viewBox="0 0 279 247" data-background-color="#331e6d" preserveAspectRatio="xMidYMid meet" height="885" width="1000" xmlns="http://www.w3.org/2000/svg" xmlns:xlink="http://www.w3.org/1999/xlink"><g id="tight-bounds" transform="matrix(1,0,0,1,0.12733797533130087,-0.10000037810667095)"><svg viewBox="0 0 278.74530315944963 247.2" height="247.2" width="278.74530315944963"><g><svg viewBox="0 0 395.52 350.7594312506551" height="247.2" width="278.74530315944963"><g transform="matrix(1,0,0,1,0,254.86319762111663)"><svg viewBox="0 0 395.52 95.89623362953846" height="95.89623362953846" width="395.52"><g id="textblocktransform"><svg viewBox="0 0 395.52 95.89623362953846" height="95.89623362953846" width="395.52" id="textblock"><g><rect width="106.36147788942307" height="4.664329463099077" y="77.58201843645045" fill="#ffcf31" data-fill-palette-color="tertiary"></rect><rect width="106.36147788942307" height="4.664329463099077" y="77.58201843645045" x="289.1585221105769" fill="#ffcf31" data-fill-palette-color="tertiary"></rect></g><g><svg viewBox="0 0 395.52 51.72184615384615" height="51.72184615384615" width="395.52"><g transform="matrix(1,0,0,1,0,0)"><svg width="395.52" viewBox="0.8500000238418579 -34 259.97998046875 34" height="51.72184615384615" data-palette-color="#ffcf31"><path d="M7.75 0L0.85 0 8.5-34 21.6-34 29.25 0 22.35 0 21-6.15 9.1-6.15 7.75 0ZM16.25-28.3L13.85-28.3 10.4-12.15 19.7-12.15 16.25-28.3ZM45.25 0L45.25 0 33.8 0 33.8-34 45.25-34Q49.65-34 52.5-33.08 55.35-32.15 56.92-30.03 58.5-27.9 59.1-25.03 59.7-22.15 59.7-17.55 59.7-12.95 59.15-9.93 58.6-6.9 57.07-4.53 55.55-2.15 52.65-1.07 49.75 0 45.25 0ZM52.5-13.5L52.5-13.5Q52.6-15.1 52.6-17.93 52.6-20.75 52.4-22.45 52.2-24.15 51.45-25.55 50.7-26.95 49.22-27.48 47.75-28 45.25-28L45.25-28 40.7-28 40.7-6 45.25-6Q49-6 50.7-7.9L50.7-7.9Q52.15-9.45 52.5-13.5ZM77.7-6L83.59-34 90.84-34 82.95 0 70.2 0 62.3-34 69.55-34 75.45-6 77.7-6ZM98.04 0L91.14 0 98.79-34 111.89-34 119.54 0 112.64 0 111.29-6.15 99.39-6.15 98.04 0ZM106.54-28.3L104.14-28.3 100.69-12.15 109.99-12.15 106.54-28.3ZM135.14-13.75L135.14 0 128.24 0 128.24-13.75 117.74-34 125.39-34 131.64-20.45 137.89-34 145.54-34 135.14-13.75ZM161.79-9.9L161.79-9.9 156.19-9.9 156.19 0 149.29 0 149.29-34 161.79-34Q173.89-34 173.89-22.2L173.89-22.2Q173.89-16.25 170.81-13.08 167.74-9.9 161.79-9.9ZM156.19-28.1L156.19-15.8 161.74-15.8Q166.89-15.8 166.89-22.2L166.89-22.2Q166.89-25.35 165.64-26.73 164.39-28.1 161.74-28.1L161.74-28.1 156.19-28.1ZM181.84 0L174.94 0 182.59-34 195.69-34 203.34 0 196.44 0 195.09-6.15 183.19-6.15 181.84 0ZM190.34-28.3L187.94-28.3 184.49-12.15 193.79-12.15 190.34-28.3ZM221.43-11.4L214.78-11.4 214.78 0 207.88 0 207.88-34 221.08-34Q233.08-34 233.08-22.8L233.08-22.8Q233.08-16.15 228.08-13L228.08-13 232.93 0 225.38 0 221.43-11.4ZM221.18-17.3Q223.63-17.3 224.83-18.8 226.03-20.3 226.03-22.75 226.03-25.2 224.76-26.65 223.48-28.1 221.08-28.1L221.08-28.1 214.78-28.1 214.78-17.3 221.18-17.3ZM244.93-27.9L235.83-27.9 235.83-34 260.83-34 260.83-27.9 251.83-27.9 251.83 0 244.93 0 244.93-27.9Z" opacity="1" transform="matrix(1,0,0,1,0,0)" fill="#ffcf31" class="wordmark-text-0" data-fill-palette-color="primary" id="text-0"></path></svg></g></svg></g><g transform="matrix(1,0,0,1,106.36147788942307,63.93213270646154)"><svg viewBox="0 0 182.79704422115384 31.96410092307692" height="31.96410092307692" width="182.79704422115384"><g transform="matrix(1,0,0,1,8,0)"><svg width="166.79704422115384" viewBox="4.300000190734863 -37.9900016784668 260.8800048828125 50" height="31.96410092307692" data-palette-color="#ffcf31"><path d="M16.5-27.25L16.5-27.25Q18.29-27.25 19.7-26.95L19.7-26.95 19.14-23.19Q17.48-23.56 16.21-23.56L16.21-23.56Q12.96-23.56 10.66-20.92 8.35-18.29 8.35-14.36L8.35-14.36 8.35 0 4.3 0 4.3-26.76 7.64-26.76 8.11-21.8 8.3-21.8Q9.79-24.41 11.89-25.83 13.99-27.25 16.5-27.25ZM36.01 0.49L36.01 0.49Q30.08 0.49 26.65-3.13 23.22-6.74 23.22-13.16L23.22-13.16Q23.22-19.63 26.4-23.44 29.59-27.25 34.96-27.25L34.96-27.25Q39.99-27.25 42.92-23.94 45.85-20.63 45.85-15.21L45.85-15.21 45.85-12.65 27.41-12.65Q27.54-7.93 29.79-5.49 32.05-3.05 36.15-3.05L36.15-3.05Q40.48-3.05 44.7-4.86L44.7-4.86 44.7-1.25Q42.55-0.32 40.63 0.09 38.72 0.49 36.01 0.49ZM34.91-23.85L34.91-23.85Q31.69-23.85 29.77-21.75 27.85-19.65 27.51-15.94L27.51-15.94 41.5-15.94Q41.5-19.78 39.79-21.81 38.08-23.85 34.91-23.85ZM65.2 0.49L65.2 0.49Q62.59 0.49 60.43-0.48 58.27-1.44 56.81-3.44L56.81-3.44 56.51-3.44Q56.81-1.1 56.81 1L56.81 1 56.81 12.01 52.75 12.01 52.75-26.76 56.05-26.76 56.61-23.1 56.81-23.1Q58.37-25.29 60.44-26.27 62.52-27.25 65.2-27.25L65.2-27.25Q70.53-27.25 73.42-23.61 76.31-19.97 76.31-13.4L76.31-13.4Q76.31-6.81 73.37-3.16 70.43 0.49 65.2 0.49ZM64.62-23.8L64.62-23.8Q60.52-23.8 58.69-21.53 56.86-19.26 56.81-14.31L56.81-14.31 56.81-13.4Q56.81-7.76 58.69-5.33 60.57-2.91 64.72-2.91L64.72-2.91Q68.18-2.91 70.15-5.71 72.11-8.52 72.11-13.45L72.11-13.45Q72.11-18.46 70.15-21.13 68.18-23.8 64.62-23.8ZM102.85 0L99.85 0 99.04-3.81 98.85-3.81Q96.84-1.29 94.85-0.4 92.86 0.49 89.89 0.49L89.89 0.49Q85.91 0.49 83.65-1.56 81.39-3.61 81.39-7.4L81.39-7.4Q81.39-15.5 94.35-15.89L94.35-15.89 98.89-16.04 98.89-17.7Q98.89-20.85 97.54-22.35 96.18-23.85 93.21-23.85L93.21-23.85Q89.86-23.85 85.64-21.8L85.64-21.8 84.39-24.9Q86.37-25.98 88.73-26.59 91.08-27.2 93.45-27.2L93.45-27.2Q98.23-27.2 100.54-25.07 102.85-22.95 102.85-18.26L102.85-18.26 102.85 0ZM90.69-2.86L90.69-2.86Q94.47-2.86 96.64-4.93 98.8-7.01 98.8-10.74L98.8-10.74 98.8-13.16 94.74-12.99Q89.91-12.82 87.77-11.49 85.64-10.16 85.64-7.35L85.64-7.35Q85.64-5.15 86.97-4 88.3-2.86 90.69-2.86ZM115.25-26.76L115.25 0 111.2 0 111.2-26.76 115.25-26.76ZM110.85-34.01L110.85-34.01Q110.85-35.4 111.54-36.05 112.22-36.69 113.25-36.69L113.25-36.69Q114.22-36.69 114.93-36.04 115.64-35.38 115.64-34.01L115.64-34.01Q115.64-32.64 114.93-31.97 114.22-31.3 113.25-31.3L113.25-31.3Q112.22-31.3 111.54-31.97 110.85-32.64 110.85-34.01ZM136.05-27.25L136.05-27.25Q137.83-27.25 139.25-26.95L139.25-26.95 138.68-23.19Q137.02-23.56 135.75-23.56L135.75-23.56Q132.51-23.56 130.2-20.92 127.89-18.29 127.89-14.36L127.89-14.36 127.89 0 123.84 0 123.84-26.76 127.18-26.76 127.65-21.8 127.84-21.8Q129.33-24.41 131.43-25.83 133.53-27.25 136.05-27.25ZM165.88-2.86L165.88-2.86Q166.95-2.86 167.95-3.02 168.95-3.17 169.54-3.34L169.54-3.34 169.54-0.24Q168.88 0.07 167.6 0.28 166.32 0.49 165.29 0.49L165.29 0.49Q157.53 0.49 157.53-7.69L157.53-7.69 157.53-23.61 153.69-23.61 153.69-25.56 157.53-27.25 159.24-32.96 161.58-32.96 161.58-26.76 169.34-26.76 169.34-23.61 161.58-23.61 161.58-7.86Q161.58-5.44 162.73-4.15 163.87-2.86 165.88-2.86ZM197.98-13.4L197.98-13.4Q197.98-6.86 194.68-3.19 191.39 0.49 185.58 0.49L185.58 0.49Q181.99 0.49 179.2-1.2 176.42-2.88 174.91-6.03 173.39-9.18 173.39-13.4L173.39-13.4Q173.39-19.95 176.66-23.6 179.94-27.25 185.75-27.25L185.75-27.25Q191.36-27.25 194.67-23.51 197.98-19.78 197.98-13.4ZM177.59-13.4L177.59-13.4Q177.59-8.28 179.64-5.59 181.69-2.91 185.67-2.91L185.67-2.91Q189.65-2.91 191.72-5.58 193.78-8.25 193.78-13.4L193.78-13.4Q193.78-18.51 191.72-21.15 189.65-23.8 185.62-23.8L185.62-23.8Q181.65-23.8 179.62-21.19 177.59-18.58 177.59-13.4ZM228.18-13.4L228.18-13.4Q228.18-6.86 224.88-3.19 221.58 0.49 215.77 0.49L215.77 0.49Q212.18 0.49 209.4-1.2 206.62-2.88 205.1-6.03 203.59-9.18 203.59-13.4L203.59-13.4Q203.59-19.95 206.86-23.6 210.13-27.25 215.94-27.25L215.94-27.25Q221.56-27.25 224.87-23.51 228.18-19.78 228.18-13.4ZM207.79-13.4L207.79-13.4Q207.79-8.28 209.84-5.59 211.89-2.91 215.87-2.91L215.87-2.91Q219.85-2.91 221.91-5.58 223.98-8.25 223.98-13.4L223.98-13.4Q223.98-18.51 221.91-21.15 219.85-23.8 215.82-23.8L215.82-23.8Q211.84-23.8 209.82-21.19 207.79-18.58 207.79-13.4ZM239.33-37.99L239.33 0 235.28 0 235.28-37.99 239.33-37.99ZM265.18-7.3L265.18-7.3Q265.18-3.56 262.4-1.54 259.62 0.49 254.59 0.49L254.59 0.49Q249.26 0.49 246.29-1.2L246.29-1.2 246.29-4.96Q248.21-3.98 250.42-3.42 252.63-2.86 254.68-2.86L254.68-2.86Q257.86-2.86 259.57-3.87 261.28-4.88 261.28-6.96L261.28-6.96Q261.28-8.52 259.92-9.63 258.57-10.74 254.64-12.26L254.64-12.26Q250.9-13.65 249.33-14.69 247.75-15.72 246.98-17.04 246.21-18.36 246.21-20.19L246.21-20.19Q246.21-23.46 248.87-25.35 251.54-27.25 256.17-27.25L256.17-27.25Q260.49-27.25 264.62-25.49L264.62-25.49 263.18-22.19Q259.15-23.85 255.88-23.85L255.88-23.85Q253-23.85 251.54-22.95 250.07-22.05 250.07-20.46L250.07-20.46Q250.07-19.38 250.62-18.63 251.17-17.87 252.39-17.19 253.61-16.5 257.08-15.21L257.08-15.21Q261.84-13.48 263.51-11.72 265.18-9.96 265.18-7.3Z" opacity="1" transform="matrix(1,0,0,1,0,0)" fill="#ffcf31" class="slogan-text-1" data-fill-palette-color="secondary" id="text-1"></path></svg></g></svg></g></svg></g></svg></g><g transform="matrix(1,0,0,1,82.53868774205706,0)"><svg viewBox="0 0 230.44262451588585 230.44262451588585" height="230.44262451588585" width="230.44262451588585"><g><svg></svg></g><g id="icon-0"><svg viewBox="0 0 230.44262451588585 230.44262451588585" height="230.44262451588585" width="230.44262451588585"><g><path d="M0 115.221c0-63.635 51.586-115.221 115.221-115.221 63.635 0 115.221 51.586 115.222 115.221 0 63.635-51.586 115.221-115.222 115.222-63.635 0-115.221-51.586-115.221-115.222zM115.221 225.778c61.059 0 110.557-49.498 110.557-110.557 0-61.059-49.498-110.557-110.557-110.557-61.059 0-110.557 49.498-110.557 110.557 0 61.059 49.498 110.557 110.557 110.557z" data-fill-palette-color="tertiary" fill="#ffcf31" stroke="transparent"></path></g><g transform="matrix(1,0,0,1,71.2107264447152,45.6876736257169)"><svg viewBox="0 0 88.02117162645544 139.06727726445206" height="139.06727726445206" width="88.02117162645544"><g><svg xmlns="http://www.w3.org/2000/svg" xmlns:xlink="http://www.w3.org/1999/xlink" version="1.1" x="0" y="0" viewBox="24.524999618530273 9.75 50.95099639892578 80.4990005493164" enable-background="new 0 0 100 100" xml:space="preserve" height="139.06727726445206" width="88.02117162645544" class="icon-s-0" data-fill-palette-color="accent" id="s-0"><path d="M72.281 9.75H27.719c-1.765 0-3.194 1.43-3.194 3.194v74.111c0 1.764 1.43 3.194 3.194 3.194h44.563c1.765 0 3.194-1.431 3.194-3.194V12.944C75.476 11.18 74.046 9.75 72.281 9.75zM43.291 14.622h13.418c0.926 0 1.677 0.75 1.677 1.677 0 0.926-0.751 1.677-1.677 1.677H43.291c-0.926 0-1.677-0.751-1.677-1.677C41.614 15.372 42.365 14.622 43.291 14.622zM50 86.257c-3.087 0-5.591-2.503-5.591-5.59 0-3.088 2.504-5.59 5.591-5.59s5.591 2.502 5.591 5.59C55.591 83.754 53.087 86.257 50 86.257zM68.688 71.243H31.313V23.007h37.375V71.243z" fill="#ffcf31" data-fill-palette-color="accent"></path></svg></g></svg></g></svg></g></svg></g><g></g></svg></g><defs></defs></svg><rect width="278.74530315944963" height="247.2" fill="none" stroke="none" visibility="hidden"></rect></g></svg></g></svg>